<?xml version="1.0" encoding="utf-8"?>
<!-- Generator: Adobe Illustrator 15.1.0, SVG Export Plug-In . SVG Version: 6.00 Build 0)  -->
<!DOCTYPE svg PUBLIC "-//W3C//DTD SVG 1.0//EN" "http://www.w3.org/TR/2001/REC-SVG-20010904/DTD/svg10.dtd">
<svg version="1.0" id="Layer_1" xmlns="http://www.w3.org/2000/svg" xmlns:xlink="http://www.w3.org/1999/xlink" x="0px" y="0px"
	 width="850.39px" height="340.16px" viewBox="0 0 850.39 340.16" enable-background="new 0 0 850.39 340.16" xml:space="preserve">
<g>
	<path fill="#0361AA" d="M384.345,30.272c-48.014,0-81.546,35.343-81.546,85.945c0,25.544,7.833,51.089,26.437,68.529
		c18.461,17.307,41.718,23.859,63.683,23.859c26.499,0,49.312-8.842,58.354-15.449c4.706-3.436,13.043-11.662,11.113-22.508
		c-1.631-9.201-9.644-17.232-12.275-19.865l-1.964-2.01l-1.326,1.577c-4.228,5.03-17.099,20.325-42.896,20.325
		c-29.35,0-48.321-16.963-48.321-43.21c0-1.146,0.911-2.055,2.027-2.055h107.217c1.136,0,2.063-0.911,2.109-2.065
		c0.071-1.777,0.107-3.533,0.107-5.283c0-25.473-7.833-47.268-22.65-63.031C429.423,39.071,408.097,30.272,384.345,30.272
		 M416.714,94.864H358.72c-0.595,0-1.163-0.28-1.551-0.75c-0.388-0.468-0.54-1.091-0.433-1.684
		c3.2-17.892,14.494-28.15,30.988-28.15c16.153,0,27.726,10.519,30.962,28.139c0.116,0.595-0.047,1.218-0.423,1.695
		C417.885,94.593,417.317,94.864,416.714,94.864"/>
	<path fill="#0361AA" d="M605.294,57.943c0,8.987-5.896,18.172-10.446,25.581c-9.833-7.813-22.309-13.24-34.558-15.962
		c-10.068-2.236-33.387-4.291-34.792,9.176c-0.576,5.58,3.289,10.159,10.97,13.296c12.067,4.903,26.671,10.463,38.856,15.223
		c11.338,4.444,21.335,11.79,27.348,22.499c5.958,10.635,6.254,24.598,3.531,36.226c-5.992,25.534-30.132,39.578-54.828,42.751
		c-18.262,2.353-38.857,0.91-55.956-6.282c-7.644-3.218-17.019-7.949-17.433-17.412c-0.396-8.925,4.866-20.444,8.914-27.017
		c9.004,6.771,24.689,11.746,36.649,13.864c12.149,2.162,29.042,2.929,34.937-5.698c4.859-7.094-0.135-13.771-9.419-18.243
		c-11.421-5.488-29.268-12.114-37.054-15.827c-11.114-5.31-19.326-8.716-26.384-19.101c-6.852-10.084-8.707-23.146-6.519-35.008
		c4.725-25.554,31.286-38.605,54.975-41.272c14.61-1.641,30.034-0.532,44.238,3.245C588.188,40.595,604.43,45.649,605.294,57.943
		C605.294,61.396,604.817,51.265,605.294,57.943"/>
	<path fill="#0361AA" d="M741.615,57.943c0,8.987-5.879,18.172-10.43,25.581c-9.842-7.813-22.309-13.24-34.576-15.962
		c-10.06-2.236-33.386-4.291-34.772,9.176c-0.586,5.58,3.271,10.159,10.961,13.296c12.077,4.903,26.681,10.463,38.856,15.223
		c11.348,4.444,21.345,11.79,27.347,22.499c5.968,10.635,6.267,24.598,3.532,36.226c-5.983,25.534-30.132,39.578-54.819,42.751
		c-18.27,2.353-38.85,0.91-55.965-6.282c-7.635-3.218-17.025-7.949-17.44-17.412c-0.388-8.925,4.876-20.444,8.924-27.017
		c9.014,6.771,24.697,11.746,36.658,13.864c12.141,2.162,29.032,2.929,34.928-5.698c4.856-7.094-0.136-13.771-9.42-18.243
		c-11.42-5.488-29.269-12.114-37.055-15.827c-11.124-5.31-19.334-8.716-26.393-19.101c-6.852-10.084-8.715-23.146-6.524-35.008
		c4.73-25.554,31.284-38.605,54.991-41.272c14.602-1.641,30.023-0.532,44.229,3.245C724.517,40.595,740.761,45.649,741.615,57.943
		C741.615,61.396,741.147,51.265,741.615,57.943"/>
	<path fill="#0361AA" d="M81.435,33.292v143.143c0,5.607,0.822,10.193,2.434,13.646c1.569,3.399,3.769,6.121,6.526,8.104
		c2.793,2.026,6.246,3.444,10.24,4.219c4.227,0.81,9.085,1.218,14.42,1.218c4.264,0,6.346-0.117,10.25-0.36
		c2.19-0.136,3.659-0.308,4.641-0.442V58.133c0-5.489-0.982-9.925-2.91-13.215c-1.966-3.317-4.472-5.822-7.645-7.642
		c-3.28-1.866-7.002-3.156-11.059-3.823c-8.618-1.396-15.405-1.216-23.426-0.513C83.348,33.085,82.237,33.193,81.435,33.292"/>
	<path fill="#0361AA" d="M301.943,67.841l-54.126,134.032h-47.025L134.012,32.814h23.796c7.426,0,12.98,1.317,16.603,2.658
		c4.372,1.614,8.707,4.228,12.457,7.752c7.176,6.75,9.745,16.44,11.736,21.939l25.4,74.091l36.874-106.441h19.57
		C307.774,32.814,306.072,55.826,301.943,67.841"/>
	<g>
		<g>
			<g>
				<defs>
					<path id="SVGID_1_" d="M422.363,275.062c228.691-32.395,368.23-5.381,400.474,31.53c0,0-44.823-160.327-401.808-94.94
						c-228.683,32.385-368.23,5.381-400.472-31.529C20.558,180.123,65.392,340.447,422.363,275.062"/>
				</defs>
				<clipPath id="SVGID_2_">
					<use xlink:href="#SVGID_1_"  overflow="visible"/>
				</clipPath>
				
					<linearGradient id="SVGID_3_" gradientUnits="userSpaceOnUse" x1="412.1733" y1="184.6836" x2="413.3179" y2="184.6836" gradientTransform="matrix(701.1372 28.8875 0 -701.1372 -288966.5 117809)">
					<stop  offset="0" style="stop-color:#2BACE2"/>
					<stop  offset="0.1568" style="stop-color:#1DBFF0"/>
					<stop  offset="0.4946" style="stop-color:#A0DDF9"/>
					<stop  offset="1" style="stop-color:#2BACE2"/>
				</linearGradient>
				<polygon clip-path="url(#SVGID_2_)" fill="url(#SVGID_3_)" points="20.558,113.224 822.837,146.277 822.837,373.509 
					20.558,340.447 				"/>
			</g>
		</g>
	</g>
	<path fill="#0361AA" d="M63.264,172.037c0.767,0,1.406,0.127,1.92,0.389c0.523,0.261,0.92,0.619,1.208,1.117
		c0.308,0.478,0.523,1.055,0.641,1.74c0.127,0.684,0.18,1.449,0.18,2.289v3.561H53.484c-0.054-0.559-0.1-1.092-0.144-1.604
		c-0.027-0.505-0.045-1.091-0.045-1.739c0-0.955,0.072-1.748,0.225-2.396c0.154-0.658,0.37-1.189,0.659-1.587
		c0.279-0.396,0.64-0.677,1.071-0.864c0.443-0.182,0.93-0.271,1.479-0.271c0.478,0,0.911,0.072,1.271,0.207
		c0.36,0.137,0.667,0.309,0.938,0.504c0.27,0.209,0.468,0.416,0.639,0.65c0.162,0.233,0.28,0.44,0.37,0.639
		c0.054-0.226,0.143-0.494,0.27-0.793c0.136-0.314,0.325-0.604,0.568-0.875c0.244-0.26,0.568-0.494,0.964-0.685
		C62.156,172.127,62.66,172.037,63.264,172.037 M56.792,174.463c-0.424,0-0.767,0.08-1.036,0.262
		c-0.271,0.171-0.478,0.404-0.623,0.712c-0.144,0.298-0.244,0.657-0.298,1.073c-0.053,0.424-0.081,0.884-0.081,1.369
		c0,0.334,0.008,0.621,0.019,0.865c0.008,0.242,0.035,0.441,0.062,0.594h4.534v-1.955c0-0.848-0.216-1.551-0.675-2.107
		C58.252,174.74,57.621,174.463,56.792,174.463 M65.717,178.041c0-0.612-0.028-1.172-0.092-1.688
		c-0.053-0.504-0.161-0.943-0.341-1.314c-0.172-0.371-0.415-0.658-0.74-0.875c-0.333-0.207-0.766-0.305-1.317-0.305
		c-0.477,0-0.873,0.098-1.18,0.287c-0.307,0.197-0.55,0.45-0.739,0.775c-0.18,0.334-0.315,0.703-0.379,1.125
		c-0.063,0.426-0.1,0.856-0.1,1.316v1.975h4.887L65.717,178.041L65.717,178.041z"/>
	<path fill="#0361AA" d="M67.211,158.97l-3.694,1.368v5.57l3.694,1.334v1.84l-13.647-5.004c-0.036-0.099-0.081-0.232-0.117-0.432
		c-0.036-0.189-0.063-0.389-0.063-0.568c0-0.262,0.055-0.504,0.171-0.713c0.119-0.215,0.344-0.387,0.667-0.514l12.988-4.76
		L67.211,158.97L67.211,158.97z M55.478,163.133l6.57,2.326v-4.635L55.478,163.133z"/>
	<path fill="#0361AA" d="M65.796,151.586c0.288,0,0.578,0,0.883,0.019c0.307,0.019,0.614,0.037,0.938,0.062
		c0.396,0.037,0.793,0.138,1.18,0.281c0.388,0.133,0.739,0.342,1.046,0.611c0.316,0.27,0.568,0.605,0.757,1
		c0.199,0.398,0.288,0.875,0.288,1.416c0,0.441-0.097,0.73-0.288,0.883c-0.189,0.145-0.433,0.207-0.72,0.207h-0.252
		c-0.091,0-0.181-0.008-0.244-0.016c0-0.992-0.19-1.695-0.595-2.084c-0.396-0.387-1.063-0.596-2.001-0.596H53.439
		c-0.027-0.062-0.044-0.144-0.055-0.242c0-0.101-0.018-0.181-0.018-0.244c0-0.127,0.018-0.26,0.045-0.414
		c0.027-0.146,0.091-0.289,0.18-0.424c0.1-0.125,0.235-0.242,0.387-0.334c0.164-0.08,0.379-0.127,0.64-0.127h11.178V151.586z"/>
	<path fill="#0361AA" d="M60.253,135.308c0.991,0,1.918,0.116,2.802,0.343c0.875,0.224,1.65,0.585,2.309,1.063
		c0.648,0.477,1.18,1.108,1.578,1.866c0.396,0.756,0.576,1.676,0.576,2.748c0,1.056-0.188,1.957-0.595,2.704
		c-0.396,0.75-0.937,1.362-1.595,1.822c-0.667,0.468-1.442,0.8-2.317,1.01c-0.884,0.216-1.794,0.325-2.75,0.325
		c-0.946,0-1.838-0.119-2.703-0.352c-0.857-0.227-1.614-0.595-2.272-1.101c-0.64-0.486-1.163-1.116-1.551-1.875
		c-0.387-0.765-0.568-1.676-0.568-2.73c0-1.027,0.181-1.919,0.559-2.641c0.371-0.739,0.883-1.343,1.515-1.812
		c0.64-0.468,1.387-0.821,2.254-1.046C58.352,135.424,59.279,135.308,60.253,135.308 M60.272,137.182
		c-0.731,0-1.434,0.063-2.101,0.208c-0.659,0.135-1.235,0.36-1.739,0.659c-0.496,0.316-0.894,0.721-1.182,1.244
		c-0.279,0.513-0.432,1.144-0.432,1.883c0,0.784,0.152,1.426,0.432,1.957c0.289,0.522,0.687,0.937,1.182,1.263
		c0.504,0.324,1.081,0.549,1.739,0.693c0.658,0.135,1.361,0.199,2.101,0.199c0.748,0,1.451-0.072,2.136-0.199
		c0.684-0.136,1.279-0.369,1.811-0.685c0.533-0.315,0.947-0.73,1.253-1.243c0.316-0.525,0.46-1.154,0.46-1.921
		c0-0.757-0.153-1.396-0.46-1.92c-0.315-0.522-0.73-0.945-1.253-1.261c-0.532-0.307-1.136-0.54-1.811-0.675
		C61.723,137.246,61.01,137.182,60.272,137.182"/>
	<path fill="#0361AA" d="M64.473,114.08H53.42c0-0.036,0-0.089-0.018-0.145c0-0.035,0-0.089-0.008-0.161
		c0-0.055-0.011-0.127-0.011-0.19c0-0.117,0.019-0.252,0.055-0.387c0.027-0.145,0.089-0.271,0.18-0.377
		c0.091-0.119,0.217-0.216,0.388-0.299c0.18-0.072,0.396-0.108,0.675-0.108h12.548v1.667l-10.69,6.996h10.69v1.676H53.493
		c-0.026-0.091-0.044-0.208-0.072-0.351c-0.018-0.162-0.025-0.306-0.025-0.452c0-0.305,0.053-0.549,0.152-0.712
		c0.1-0.18,0.279-0.333,0.523-0.496L64.473,114.08z"/>
	<path fill="#0361AA" d="M60.253,96.09c0.991,0,1.918,0.117,2.802,0.342c0.875,0.234,1.65,0.586,2.309,1.063
		c0.648,0.478,1.18,1.099,1.578,1.866c0.396,0.767,0.576,1.676,0.576,2.749c0,1.063-0.188,1.955-0.595,2.705
		c-0.396,0.748-0.937,1.36-1.595,1.831c-0.667,0.459-1.442,0.8-2.317,1.008c-0.884,0.216-1.794,0.327-2.75,0.327
		c-0.946,0-1.838-0.119-2.703-0.354c-0.857-0.225-1.614-0.584-2.272-1.081c-0.64-0.504-1.163-1.126-1.551-1.885
		c-0.387-0.765-0.568-1.676-0.568-2.73c0-1.027,0.181-1.911,0.559-2.649c0.371-0.739,0.883-1.343,1.515-1.812
		c0.64-0.47,1.387-0.821,2.254-1.046C58.36,96.208,59.279,96.09,60.253,96.09 M60.272,97.963c-0.731,0-1.434,0.062-2.101,0.209
		c-0.659,0.133-1.235,0.359-1.739,0.656c-0.496,0.308-0.894,0.722-1.182,1.244c-0.279,0.515-0.432,1.146-0.432,1.885
		c0,0.784,0.152,1.432,0.432,1.955c0.289,0.514,0.687,0.938,1.182,1.263c0.504,0.324,1.081,0.55,1.739,0.694
		c0.658,0.134,1.361,0.198,2.101,0.198c0.748,0,1.451-0.064,2.136-0.198c0.684-0.144,1.279-0.37,1.811-0.686
		c0.533-0.316,0.947-0.73,1.253-1.244c0.316-0.523,0.46-1.154,0.46-1.919c0-0.758-0.153-1.398-0.46-1.921
		c-0.307-0.532-0.73-0.946-1.253-1.262c-0.532-0.306-1.136-0.541-1.811-0.665C61.723,98.036,61.01,97.963,60.272,97.963"/>
	<path fill="#0361AA" d="M57.233,83.145c0.569,0,1.09,0.083,1.541,0.243c0.452,0.172,0.848,0.388,1.172,0.659
		c0.325,0.279,0.595,0.595,0.821,0.964c0.216,0.362,0.377,0.749,0.468,1.163l5.958-3.767c0.081,0.134,0.125,0.297,0.153,0.468
		c0.028,0.171,0.036,0.343,0.036,0.496c0,0.631-0.271,1.118-0.803,1.459l-5.02,3.209v1.838h5.633v1.794H53.467
		c-0.063-0.495-0.126-1.027-0.154-1.595c-0.026-0.576-0.036-1.119-0.036-1.64c0-1.876,0.324-3.236,0.966-4.047
		C54.882,83.551,55.882,83.145,57.233,83.145 M57.324,85.021c-0.514,0-0.938,0.08-1.271,0.232c-0.324,0.163-0.586,0.388-0.774,0.687
		c-0.189,0.296-0.308,0.648-0.388,1.072c-0.063,0.415-0.099,0.883-0.099,1.387c0,0.333,0.008,0.622,0.018,0.875
		c0.009,0.244,0.037,0.47,0.063,0.676v-0.044h5.192v-1.487c0-0.505-0.046-0.956-0.144-1.371c-0.099-0.404-0.262-0.765-0.487-1.072
		c-0.216-0.307-0.505-0.531-0.847-0.702C58.252,85.102,57.829,85.021,57.324,85.021"/>
	<path fill="#0361AA" d="M53.367,77.107c0-0.289,0.081-0.514,0.208-0.694c0.125-0.171,0.325-0.316,0.549-0.416l8.329-3.848
		l-8.273-3.823c-0.334-0.145-0.551-0.342-0.65-0.558c-0.098-0.224-0.162-0.442-0.162-0.667c0-0.171,0.018-0.352,0.045-0.504
		c0.027-0.171,0.054-0.298,0.08-0.387l13.711-0.965v1.668L56.37,67.662l7.697,3.66v1.739l-7.345,3.497l10.482,0.767v1.703L53.493,78
		c-0.026-0.099-0.053-0.216-0.08-0.37C53.396,77.468,53.367,77.297,53.367,77.107"/>
	<path fill="#0361AA" d="M67.211,51.841l-3.694,1.379v5.562l3.694,1.342v1.839l-13.647-5.001c-0.036-0.1-0.081-0.243-0.117-0.442
		c-0.036-0.189-0.063-0.388-0.063-0.567c0-0.263,0.055-0.496,0.171-0.712c0.119-0.208,0.344-0.387,0.667-0.506l12.988-4.769
		L67.211,51.841L67.211,51.841z M55.478,56.005l6.57,2.326v-4.633L55.478,56.005z"/>
	<path fill="#0361AA" d="M64.625,46.812c0.36-0.441,0.667-0.954,0.936-1.577c0.271-0.604,0.398-1.262,0.398-1.965
		c0-0.532-0.063-0.981-0.199-1.334c-0.144-0.36-0.316-0.648-0.541-0.864c-0.216-0.208-0.468-0.371-0.758-0.46
		c-0.28-0.089-0.567-0.144-0.873-0.144c-0.387,0-0.722,0.055-1.01,0.171c-0.28,0.116-0.541,0.288-0.758,0.522
		c-0.206,0.225-0.386,0.513-0.541,0.856c-0.144,0.344-0.297,0.74-0.432,1.172c-0.152,0.506-0.324,0.991-0.514,1.47
		c-0.197,0.468-0.441,0.883-0.72,1.244c-0.289,0.368-0.649,0.659-1.074,0.875c-0.422,0.216-0.963,0.332-1.584,0.332
		c-0.623,0-1.163-0.107-1.633-0.341c-0.477-0.216-0.874-0.531-1.188-0.91c-0.308-0.388-0.551-0.848-0.714-1.388
		c-0.17-0.533-0.252-1.128-0.252-1.749c0-0.514,0.063-1.055,0.19-1.642c0.134-0.576,0.324-1.072,0.568-1.496
		c0.135-0.216,0.288-0.406,0.441-0.559c0.154-0.144,0.343-0.225,0.542-0.225c0.17,0,0.341,0.072,0.541,0.197
		c0.188,0.127,0.387,0.298,0.567,0.487c-0.099,0.108-0.216,0.263-0.379,0.451c-0.144,0.199-0.28,0.423-0.415,0.704
		c-0.125,0.279-0.233,0.586-0.341,0.946c-0.091,0.35-0.145,0.729-0.145,1.144c0,0.479,0.054,0.884,0.171,1.208
		c0.125,0.324,0.27,0.578,0.46,0.775c0.18,0.199,0.396,0.343,0.648,0.434c0.252,0.089,0.515,0.134,0.767,0.134
		c0.352,0,0.641-0.061,0.893-0.197c0.243-0.144,0.459-0.334,0.64-0.595c0.189-0.252,0.351-0.567,0.514-0.947
		c0.145-0.37,0.297-0.792,0.449-1.279c0.154-0.478,0.335-0.938,0.542-1.361c0.216-0.432,0.477-0.811,0.792-1.144
		c0.316-0.335,0.695-0.595,1.127-0.795c0.432-0.205,0.955-0.296,1.55-0.296c0.695,0,1.298,0.109,1.821,0.333
		c0.513,0.217,0.956,0.542,1.316,0.947c0.36,0.406,0.631,0.903,0.811,1.47c0.18,0.576,0.261,1.19,0.261,1.883
		c0,0.758-0.081,1.461-0.243,2.118c-0.171,0.649-0.387,1.163-0.658,1.542c-0.235,0.332-0.487,0.514-0.767,0.514
		c-0.162,0-0.352-0.063-0.576-0.19C65.049,47.118,64.824,46.974,64.625,46.812"/>
	<g>
		<g>
			<g>
				<defs>
					<path id="SVGID_4_" d="M422.363,275.062c228.691-32.395,368.23-5.381,400.474,31.53c0,0-44.823-160.327-401.808-94.94
						c-228.683,32.385-368.23,5.381-400.472-31.529C20.558,180.123,65.392,340.447,422.363,275.062"/>
				</defs>
				<clipPath id="SVGID_5_">
					<use xlink:href="#SVGID_4_"  overflow="visible"/>
				</clipPath>
				<path clip-path="url(#SVGID_5_)" fill="#FFFFFF" d="M421.165,253.25c-77.888,13.224-159.864,23.398-239.508,14.394
					c-66.754-7.543-150.364-31.257-188.311-95.001c23.237,31.538,58.85,50.08,94.994,61.554
					c42.581,13.528,87.288,18.353,131.274,19.442c47.275,1.181,94.453-2.236,141.053-8.213c46.86-6.021,93.047-15.385,140.17-20.072
					c65.239-6.48,132.543-7.428,197.9,5.391c55.74,10.942,120.358,33.27,151.652,85.846
					c-42.632-57.887-123.358-73.551-188.878-79.015C580.876,230.859,499.79,239.396,421.165,253.25
					C398.714,257.062,444.655,249.111,421.165,253.25"/>
			</g>
		</g>
	</g>
</g>
</svg>
